<svg width="56" height="57" viewBox="0 0 56 57" fill="none" xmlns="http://www.w3.org/2000/svg">
<rect width="56" height="56" transform="translate(0 0.181152)" fill="white"/>
<path fill-rule="evenodd" clip-rule="evenodd" d="M35 27.1812H29V21.1812C29 20.6292 28.552 20.1812 28 20.1812C27.448 20.1812 27 20.6292 27 21.1812V27.1812H21C20.448 27.1812 20 27.6292 20 28.1812C20 28.7332 20.448 29.1812 21 29.1812H27V35.1812C27 35.7342 27.448 36.1812 28 36.1812C28.552 36.1812 29 35.7342 29 35.1812V29.1812H35C35.553 29.1812 36 28.7332 36 28.1812C36 27.6292 35.553 27.1812 35 27.1812Z" fill="#313037"/>
</svg>
